<?xml version="1.0" encoding="UTF-8" standalone="no"?>
<!DOCTYPE svg PUBLIC "-//W3C//DTD SVG 1.1//EN"
 "http://www.w3.org/Graphics/SVG/1.1/DTD/svg11.dtd">
<!-- Generated by graphviz version 2.38.0 (20140413.2041)
 -->
<!-- Title: g Pages: 1 -->
<svg width="1097pt" height="700pt"
 viewBox="0.00 0.00 1097.00 700.00" xmlns="http://www.w3.org/2000/svg" xmlns:xlink="http://www.w3.org/1999/xlink">
<g id="graph0" class="graph" transform="scale(1 1) rotate(0) translate(4 696)">
<title>g</title>
<polygon fill="white" stroke="none" points="-4,4 -4,-696 1093,-696 1093,4 -4,4"/>
<g id="clust1" class="cluster"><title>cluster_71137322</title>
<polygon fill="#ececec" stroke="black" points="8,-8 8,-684 1081,-684 1081,-8 8,-8"/>
<text text-anchor="middle" x="45.5" y="-668.8" font-family="Times,serif" font-size="14.00">mowitnow</text>
</g>
<g id="clust2" class="cluster"><title>cluster_610187941</title>
<polygon fill="#d8d8d8" stroke="black" points="16,-16 16,-653 1073,-653 1073,-16 16,-16"/>
<text text-anchor="middle" x="35.5" y="-637.8" font-family="Times,serif" font-size="14.00">kata</text>
</g>
<!-- App965865496 -->
<g id="node1" class="node"><title>App965865496</title>
<polygon fill="#ffffff" stroke="none" points="1064.5,-587.5 779.5,-587.5 779.5,-470.5 1064.5,-470.5 1064.5,-587.5"/>
<text text-anchor="start" x="785" y="-570.8" font-family="Times,serif" font-size="14.00">(C)App</text>
<text text-anchor="start" x="785" y="-547.8" font-family="Times,serif" font-size="14.00"># doMow(ctx: LawnMowerInput): List&lt;Position&gt;</text>
<text text-anchor="start" x="785" y="-524.8" font-family="Times,serif" font-size="14.00">+ main(args: String[])</text>
<text text-anchor="start" x="785" y="-501.8" font-family="Times,serif" font-size="14.00">+ mow(inputContent: String): List&lt;Position&gt;</text>
<text text-anchor="start" x="785" y="-478.8" font-family="Times,serif" font-size="14.00">+ mow(inputFile: Path): List&lt;Position&gt;</text>
<polygon fill="black" stroke="black" points="780,-563 780,-563 1065,-563 1065,-563 780,-563"/>
<polygon fill="none" stroke="black" points="779.5,-470.5 779.5,-587.5 1064.5,-587.5 1064.5,-470.5 779.5,-470.5"/>
</g>
<!-- Lawn529580866 -->
<g id="node2" class="node"><title>Lawn529580866</title>
<polygon fill="#ffffff" stroke="none" points="585.5,-370 484.5,-370 484.5,-253 585.5,-253 585.5,-370"/>
<text text-anchor="start" x="490" y="-353.3" font-family="Times,serif" font-size="14.00">(C)Lawn</text>
<text text-anchor="start" x="490" y="-330.3" font-family="Times,serif" font-size="14.00">&#45; &#160;&#160;height: int [1]</text>
<text text-anchor="start" x="490" y="-307.3" font-family="Times,serif" font-size="14.00">&#45; &#160;&#160;width: int [1]</text>
<text text-anchor="start" x="490" y="-284.3" font-family="Times,serif" font-size="14.00">+ height(): int</text>
<text text-anchor="start" x="490" y="-261.3" font-family="Times,serif" font-size="14.00">+ width(): int</text>
<polygon fill="black" stroke="black" points="485,-345.5 485,-345.5 586,-345.5 586,-345.5 485,-345.5"/>
<polygon fill="black" stroke="black" points="485,-299.5 485,-299.5 586,-299.5 586,-299.5 485,-299.5"/>
<polygon fill="none" stroke="black" points="484.5,-253 484.5,-370 585.5,-370 585.5,-253 484.5,-253"/>
</g>
<!-- LawnMowerInput711836276 -->
<g id="node3" class="node"><title>LawnMowerInput711836276</title>
<polygon fill="#ffffff" stroke="none" points="761.5,-587.5 426.5,-587.5 426.5,-470.5 761.5,-470.5 761.5,-587.5"/>
<text text-anchor="start" x="432" y="-570.8" font-family="Times,serif" font-size="14.00">(C)LawnMowerInput</text>
<text text-anchor="start" x="432" y="-547.8" font-family="Times,serif" font-size="14.00">&#45; &#160;&#160;lawn: Lawn [0..1]</text>
<text text-anchor="start" x="432" y="-524.8" font-family="Times,serif" font-size="14.00">&#45; &#160;&#160;singleMowerActions: List&lt;SingleMowerActions&gt; [0..*]</text>
<text text-anchor="start" x="432" y="-501.8" font-family="Times,serif" font-size="14.00">+ lawn(): Lawn</text>
<text text-anchor="start" x="432" y="-478.8" font-family="Times,serif" font-size="14.00">+ singleMowerActions(): List&lt;SingleMowerActions&gt;</text>
<polygon fill="black" stroke="black" points="427,-563 427,-563 762,-563 762,-563 427,-563"/>
<polygon fill="black" stroke="black" points="427,-517 427,-517 762,-517 762,-517 427,-517"/>
<polygon fill="none" stroke="black" points="426.5,-470.5 426.5,-587.5 761.5,-587.5 761.5,-470.5 426.5,-470.5"/>
</g>
<!-- LawnMowerInput711836276&#45;&gt;Lawn529580866 -->
<g id="edge1" class="edge"><title>LawnMowerInput711836276&#45;&gt;Lawn529580866</title>
<path fill="none" stroke="black" d="M578.189,-470.25C570.553,-442.359 561.345,-408.724 553.396,-379.69"/>
<polygon fill="black" stroke="black" points="556.769,-378.756 550.752,-370.035 550.017,-380.605 556.769,-378.756"/>
<text text-anchor="middle" x="577.5" y="-406.8" font-family="Times,serif" font-size="14.00">lawn</text>
<text text-anchor="middle" x="577.5" y="-391.8" font-family="Times,serif" font-size="14.00">[0..1]</text>
</g>
<!-- SingleMowerActions1577655954 -->
<g id="node6" class="node"><title>SingleMowerActions1577655954</title>
<polygon fill="#ffffff" stroke="none" points="826.5,-370 603.5,-370 603.5,-253 826.5,-253 826.5,-370"/>
<text text-anchor="start" x="609" y="-353.3" font-family="Times,serif" font-size="14.00">(C)SingleMowerActions</text>
<text text-anchor="start" x="609" y="-330.3" font-family="Times,serif" font-size="14.00">&#45; &#160;&#160;commands: List&lt;Command&gt; [0..*]</text>
<text text-anchor="start" x="609" y="-307.3" font-family="Times,serif" font-size="14.00">&#45; &#160;&#160;initial: Position [0..1]</text>
<text text-anchor="start" x="609" y="-284.3" font-family="Times,serif" font-size="14.00">+ commands(): List&lt;Command&gt;</text>
<text text-anchor="start" x="609" y="-261.3" font-family="Times,serif" font-size="14.00">+ initial(): Position</text>
<polygon fill="black" stroke="black" points="604,-345.5 604,-345.5 827,-345.5 827,-345.5 604,-345.5"/>
<polygon fill="black" stroke="black" points="604,-299.5 604,-299.5 827,-299.5 827,-299.5 604,-299.5"/>
<polygon fill="none" stroke="black" points="603.5,-253 603.5,-370 826.5,-370 826.5,-253 603.5,-253"/>
</g>
<!-- LawnMowerInput711836276&#45;&gt;SingleMowerActions1577655954 -->
<g id="edge2" class="edge"><title>LawnMowerInput711836276&#45;&gt;SingleMowerActions1577655954</title>
<path fill="none" stroke="black" d="M626.426,-470.25C642.222,-442.116 661.3,-408.139 677.698,-378.934"/>
<polygon fill="black" stroke="black" points="680.851,-380.469 682.695,-370.035 674.747,-377.041 680.851,-380.469"/>
<text text-anchor="middle" x="729.5" y="-406.8" font-family="Times,serif" font-size="14.00">singleMowerActions</text>
<text text-anchor="middle" x="729.5" y="-391.8" font-family="Times,serif" font-size="14.00">[0..*]</text>
</g>
<!-- LawnMowerInputLoader711836276 -->
<g id="node4" class="node"><title>LawnMowerInputLoader711836276</title>
<polygon fill="#ffffff" stroke="none" points="408,-622 24,-622 24,-436 408,-436 408,-622"/>
<text text-anchor="start" x="29" y="-605.8" font-family="Times,serif" font-size="14.00">(C)LawnMowerInputLoader</text>
<text text-anchor="start" x="29" y="-582.8" font-family="Times,serif" font-size="14.00">&#45; checkPreconditions(lines: List&lt;String&gt;)</text>
<text text-anchor="start" x="29" y="-559.8" font-family="Times,serif" font-size="14.00">&#45; extractAllCommands(lines: List&lt;String&gt;, i: int): List&lt;Command&gt;</text>
<text text-anchor="start" x="29" y="-536.8" font-family="Times,serif" font-size="14.00">&#45; extractLawn(line: String): Lawn</text>
<text text-anchor="start" x="29" y="-513.8" font-family="Times,serif" font-size="14.00">&#45; extractPosition(lines: List&lt;String&gt;, i: int): Position</text>
<text text-anchor="start" x="29" y="-490.8" font-family="Times,serif" font-size="14.00">+ load(filePath: Path): LawnMowerInput</text>
<text text-anchor="start" x="29" y="-467.8" font-family="Times,serif" font-size="14.00">+ load(rawContent: String): LawnMowerInput</text>
<text text-anchor="start" x="29" y="-444.8" font-family="Times,serif" font-size="14.00">+ load(lines: List&lt;String&gt;): LawnMowerInput</text>
<polygon fill="black" stroke="black" points="24,-598 24,-598 408,-598 408,-598 24,-598"/>
<polygon fill="none" stroke="black" points="24,-436 24,-622 408,-622 408,-436 24,-436"/>
</g>
<!-- Position1688227068 -->
<g id="node5" class="node"><title>Position1688227068</title>
<polygon fill="#ffffff" stroke="none" points="798.5,-187 631.5,-187 631.5,-24 798.5,-24 798.5,-187"/>
<text text-anchor="start" x="637" y="-170.3" font-family="Times,serif" font-size="14.00">(C)Position</text>
<text text-anchor="start" x="637" y="-147.3" font-family="Times,serif" font-size="14.00">&#45; &#160;&#160;direction: Direction [0..1]</text>
<text text-anchor="start" x="637" y="-124.3" font-family="Times,serif" font-size="14.00">&#45; &#160;&#160;x: int [1]</text>
<text text-anchor="start" x="637" y="-101.3" font-family="Times,serif" font-size="14.00">&#45; &#160;&#160;y: int [1]</text>
<text text-anchor="start" x="637" y="-78.3" font-family="Times,serif" font-size="14.00">+ direction(): Direction</text>
<text text-anchor="start" x="637" y="-55.3" font-family="Times,serif" font-size="14.00">+ x(): int</text>
<text text-anchor="start" x="637" y="-32.3" font-family="Times,serif" font-size="14.00">+ y(): int</text>
<polygon fill="black" stroke="black" points="632,-162.5 632,-162.5 799,-162.5 799,-162.5 632,-162.5"/>
<polygon fill="black" stroke="black" points="632,-93.5 632,-93.5 799,-93.5 799,-93.5 632,-93.5"/>
<polygon fill="none" stroke="black" points="631.5,-24 631.5,-187 798.5,-187 798.5,-24 631.5,-24"/>
</g>
<!-- SingleMowerActions1577655954&#45;&gt;Position1688227068 -->
<g id="edge3" class="edge"><title>SingleMowerActions1577655954&#45;&gt;Position1688227068</title>
<path fill="none" stroke="black" d="M715,-252.86C715,-235.582 715,-216.195 715,-197.324"/>
<polygon fill="black" stroke="black" points="718.5,-197.215 715,-187.215 711.5,-197.215 718.5,-197.215"/>
<text text-anchor="middle" x="731" y="-223.8" font-family="Times,serif" font-size="14.00">initial</text>
<text text-anchor="middle" x="731" y="-208.8" font-family="Times,serif" font-size="14.00">[0..1]</text>
</g>
</g>
</svg>
